<?xml version="1.0" standalone="no"?>
<!DOCTYPE svg PUBLIC "-//W3C//DTD SVG 20010904//EN"
 "http://www.w3.org/TR/2001/REC-SVG-20010904/DTD/svg10.dtd">
<svg version="1.0" xmlns="http://www.w3.org/2000/svg"
 width="460.000000pt" height="460.000000pt" viewBox="0 0 460.000000 460.000000"
 preserveAspectRatio="xMidYMid meet">
<metadata>
Created by potrace 1.11, written by Peter Selinger 2001-2013
</metadata>
<g transform="translate(0.000000,460.000000) scale(0.100000,-0.100000)"
fill="#000000" stroke="none">
<path d="M4520 4275 c-161 -87 -237 -129 -272 -152 -21 -12 -40 -23 -44 -23
-4 0 -32 -15 -63 -34 -128 -76 -228 -124 -276 -131 -27 -3 -81 -13 -120 -20
-38 -8 -122 -23 -185 -35 -281 -52 -370 -71 -370 -82 0 -4 4 -8 8 -8 4 0 17
-7 27 -15 11 -9 55 -40 98 -70 l79 -54 -39 -19 c-21 -10 -111 -60 -201 -110
-89 -51 -164 -92 -167 -92 -2 0 -41 -22 -87 -50 -46 -27 -86 -50 -90 -50 -3 0
-41 -20 -82 -45 -42 -25 -79 -45 -81 -45 -2 0 -39 -20 -81 -45 -41 -25 -78
-45 -80 -45 -3 0 -49 -25 -102 -56 l-97 -56 -30 17 c-16 10 -62 35 -101 55
-40 21 -89 49 -110 62 -22 14 -47 27 -57 31 -10 4 -56 29 -103 57 -46 27 -87
50 -89 50 -2 0 -26 13 -53 29 -54 32 -114 65 -237 131 -44 24 -96 53 -115 65
-19 12 -98 56 -175 98 -149 82 -139 72 -366 322 -81 89 -166 181 -236 254
l-63 66 0 -50 c0 -27 -3 -87 -7 -132 l-6 -82 -61 32 c-34 17 -89 48 -124 69
-34 21 -65 38 -68 38 -3 0 -36 17 -72 39 -37 21 -102 57 -144 80 l-78 41 0
-103 0 -104 167 -94 c93 -51 194 -107 225 -124 32 -16 58 -33 58 -36 0 -4 -37
-32 -82 -63 -107 -73 -122 -85 -117 -90 2 -2 56 -14 119 -25 63 -12 124 -24
135 -27 11 -2 56 -11 100 -19 44 -8 114 -21 155 -29 41 -8 112 -22 157 -30 49
-9 98 -25 122 -40 22 -14 43 -26 46 -26 3 0 49 -25 101 -55 53 -30 98 -55 100
-55 2 0 21 -11 42 -23 20 -13 71 -42 112 -64 342 -186 735 -408 743 -420 4 -7
14 -13 22 -13 8 0 22 -12 32 -27 9 -16 18 -30 20 -32 1 -2 9 2 17 9 12 9 22 9
46 -1 16 -8 30 -17 30 -21 0 -4 -48 -30 -106 -58 -163 -79 -217 -145 -201
-246 11 -66 81 -126 225 -194 51 -24 81 -44 77 -50 -4 -6 -37 -25 -73 -41
-137 -61 -192 -103 -218 -166 -46 -108 12 -190 196 -279 55 -26 100 -51 100
-55 0 -3 -48 -30 -107 -59 -163 -79 -217 -146 -199 -244 4 -19 15 -45 26 -59
11 -14 20 -28 20 -31 0 -5 -105 -56 -115 -56 -2 0 -48 -20 -101 -45 -53 -25
-98 -45 -101 -45 -2 0 -29 -11 -59 -25 -55 -25 -144 -65 -199 -90 -16 -7 -52
-23 -78 -34 -26 -12 -108 -48 -182 -81 l-133 -58 5 130 c4 91 3 130 -5 127 -5
-2 -55 -45 -109 -95 -54 -49 -120 -110 -147 -135 -28 -24 -64 -57 -82 -74 -75
-71 -207 -190 -222 -201 -10 -6 -84 -41 -167 -76 -154 -67 -183 -80 -318 -142
l-77 -35 0 -100 0 -100 28 15 c15 7 30 14 34 14 3 0 44 17 90 39 45 21 135 61
198 89 63 27 142 62 175 77 33 15 74 33 90 40 17 7 86 18 155 24 319 28 610
58 616 63 6 6 -11 24 -61 63 -27 22 -63 52 -79 67 -17 16 -33 28 -38 28 -4 0
-8 4 -8 8 0 8 21 18 150 74 82 36 104 46 183 82 42 20 80 36 83 36 3 0 29 11
57 24 158 74 229 106 234 106 2 0 29 11 59 25 30 14 78 36 108 50 30 14 57 25
59 25 3 0 39 16 80 35 41 19 77 35 80 35 3 0 39 -16 80 -35 41 -19 77 -35 80
-35 3 0 40 -16 84 -36 43 -19 87 -39 98 -44 11 -5 55 -25 98 -45 43 -19 80
-35 82 -35 2 0 43 -18 92 -41 129 -59 136 -62 273 -122 268 -117 329 -146 350
-166 9 -9 61 -56 115 -106 55 -49 114 -104 132 -121 18 -17 49 -46 70 -64 21
-18 61 -54 88 -79 28 -26 70 -65 94 -87 l44 -39 -7 133 c-5 84 -4 132 2 132 6
0 44 -16 85 -35 41 -19 77 -35 80 -35 3 0 45 -18 94 -41 173 -80 262 -119 269
-119 2 0 4 44 4 98 l0 98 -67 31 c-38 17 -90 41 -118 52 -77 34 -114 50 -199
90 l-79 37 79 64 c103 84 119 99 112 105 -5 6 -148 20 -534 54 -210 18 -212
19 -305 61 -52 23 -107 48 -124 55 -70 31 -694 309 -735 327 -25 11 -61 27
-80 35 -96 43 -185 87 -188 93 -1 4 -9 15 -16 25 -10 15 -16 16 -35 6 -18 -10
-27 -9 -52 7 l-31 19 37 22 c20 11 38 21 41 21 11 0 103 47 140 72 23 15 54
45 70 65 24 31 29 47 29 95 0 48 -5 62 -31 94 -33 42 -114 94 -209 136 -33 15
-61 32 -63 37 -2 6 43 33 100 61 116 57 156 88 187 145 56 104 1 189 -183 281
-61 31 -113 57 -115 60 -2 2 45 27 105 55 168 81 227 153 209 252 -4 17 -19
48 -35 67 l-28 35 56 30 c32 17 113 63 182 101 69 39 132 73 140 77 8 4 31 17
50 28 34 21 163 93 300 167 36 19 81 45 100 57 29 18 143 80 173 93 4 2 8 -25
8 -60 1 -34 4 -94 8 -133 l6 -70 32 35 c17 19 40 44 50 56 15 17 169 185 223
244 8 9 59 63 112 121 101 109 115 120 353 249 33 18 65 36 70 40 11 8 145 81
208 113 21 11 41 25 43 32 3 6 3 54 2 106 l-3 94 -75 -40z"/>
</g>
</svg>
